# xmcd
#
# Track frame offsets: 
#        150
#        18947
#        39886
#        56299
#        73884
#        88915
#        114696
#        132167
#        151997
#        171566
#        191027
#        210833
#
# Disc length: 3033 seconds
#
# Revision: 2
# Processed by: cddbd v1.5.2PL0 Copyright (c) Steve Scherf et al.
# Submitted via: ExactAudioCopy v0.99pb3
#
DISCID=a10bd70c
DTITLE=EG Kight - Southern Comfort
DYEAR=2003
DGENRE=Blues
TTITLE0=If You Ever Touch Me
TTITLE1=Sad, Sad Sunday
TTITLE2="If" is a Mighty Big Word
TTITLE3=No Time for the Blues
TTITLE4=Let the Blues Move You
TTITLE5=Cry Like a Rainy Day
TTITLE6=Somebody's Gotta Give
TTITLE7=Southern Comfort
TTITLE8=Angel from Montgomery
TTITLE9=Blues and Greens
TTITLE10=Lucky in Love
TTITLE11=Just One More
EXTD=\n\n
EXTT0=
EXTT1=
EXTT2=
EXTT3=
EXTT4=
EXTT5=
EXTT6=
EXTT7=
EXTT8=
EXTT9=
EXTT10=
EXTT11=
PLAYORDER=
